<svg width="25" height="24" viewBox="0 0 25 24" fill="none" xmlns="http://www.w3.org/2000/svg">
<g clip-path="url(#clip0)">
<path d="M24.2546 11.3826L18.7045 5.50258C18.3634 5.1408 17.794 5.1243 17.4322 5.46569C17.071 5.8068 17.0542 6.37647 17.3956 6.73798L22.3628 12L17.3956 17.2626C17.0542 17.6242 17.071 18.1935 17.4322 18.5349C17.6062 18.699 17.8285 18.7803 18.0499 18.7803C18.2891 18.7803 18.5278 18.6855 18.7046 18.4986L24.2546 12.6183C24.5818 12.2712 24.5818 11.7294 24.2546 11.3826Z" fill="white"/>
<path d="M7.6047 17.2624L2.63789 12L7.6047 6.73771C7.94582 6.3762 7.92932 5.80648 7.56781 5.46542C7.20659 5.1243 6.63659 5.1408 6.29553 5.50231L0.745493 11.3823C0.41821 11.7291 0.41821 12.2712 0.745493 12.6181L6.29581 18.4984C6.47281 18.6859 6.71131 18.7804 6.95042 18.7804C7.17181 18.7804 7.39414 18.6988 7.56781 18.5347C7.92964 18.1936 7.94582 17.6239 7.6047 17.2624Z" fill="white"/>
<path d="M13.9561 2.47018C13.465 2.39579 13.0053 2.73297 12.9303 3.22408L10.2903 20.5042C10.2153 20.9956 10.5528 21.4549 11.0442 21.5299C11.0904 21.5368 11.136 21.5401 11.1813 21.5401C11.6184 21.5401 12.0018 21.2212 12.0699 20.776L14.71 3.49591C14.785 3.00447 14.4475 2.54518 13.9561 2.47018Z" fill="white"/>
</g>
<defs>
<clipPath id="clip0">
<rect width="24" height="24" fill="white" transform="translate(0.5)"/>
</clipPath>
</defs>
</svg>
