<svg width="24" height="25" viewBox="0 0 24 25" fill="none" xmlns="http://www.w3.org/2000/svg">
<g clip-path="url(#clip0)">
<path d="M11.2929 20.2071C11.2931 20.2073 11.2933 20.2074 11.2935 20.2076C11.3166 20.2307 11.3409 20.2526 11.3662 20.2733C11.3777 20.2828 11.39 20.2911 11.4019 20.3C11.4161 20.3107 11.43 20.3217 11.4448 20.3316C11.459 20.3411 11.4738 20.3494 11.4884 20.3581C11.5018 20.3661 11.5149 20.3745 11.5287 20.3818C11.5436 20.3898 11.5589 20.3966 11.5742 20.4037C11.5885 20.4105 11.6027 20.4177 11.6174 20.4238C11.6321 20.4299 11.6472 20.4349 11.6622 20.4402C11.678 20.4459 11.6936 20.4519 11.7097 20.4568C11.7247 20.4613 11.7399 20.4647 11.7551 20.4685C11.7716 20.4726 11.7879 20.4772 11.8046 20.4806C11.8222 20.484 11.8399 20.4861 11.8576 20.4886C11.8722 20.4907 11.8866 20.4935 11.9013 20.495C11.967 20.5014 12.0331 20.5014 12.0987 20.495C12.1135 20.4935 12.1279 20.4907 12.1425 20.4886C12.1601 20.4861 12.1779 20.484 12.1954 20.4806C12.2122 20.4772 12.2285 20.4726 12.2449 20.4685C12.2601 20.4647 12.2754 20.4613 12.2904 20.4568C12.3065 20.4519 12.3221 20.4459 12.3378 20.4402C12.3528 20.4348 12.3679 20.4299 12.3827 20.4238C12.3974 20.4177 12.4116 20.4105 12.4259 20.4037C12.4412 20.3966 12.4565 20.3898 12.4714 20.3818C12.4852 20.3745 12.4982 20.366 12.5117 20.3581C12.5263 20.3494 12.541 20.3411 12.5553 20.3316C12.5701 20.3217 12.584 20.3107 12.5982 20.3C12.6101 20.2911 12.6223 20.2828 12.6339 20.2733C12.6592 20.2526 12.6835 20.2307 12.7066 20.2076C12.7068 20.2074 12.707 20.2073 12.7072 20.2071L19.7072 13.2071C20.0977 12.8166 20.0977 12.1834 19.7072 11.7929C19.3166 11.4024 18.6834 11.4024 18.2929 11.7929L13 17.0858V1.49998C13 0.947703 12.5523 0.5 12 0.5C11.4477 0.5 11 0.947703 11 1.49998V17.0858L5.70714 11.7929C5.31662 11.4024 4.68343 11.4024 4.29292 11.7929C3.9024 12.1834 3.9024 12.8166 4.29292 13.2071L11.2929 20.2071Z" fill="#F4BBD7"/>
<path d="M19 22.5H5.00005C4.44776 22.5 4.00006 22.9477 4.00006 23.5C4.00006 24.0523 4.44776 24.5 5.00005 24.5H19.0001C19.5523 24.5 20 24.0523 20 23.5C20 22.9477 19.5523 22.5 19 22.5Z" fill="#F4BBD7"/>
</g>
<defs>
<clipPath id="clip0">
<rect width="24" height="24" fill="white" transform="translate(0 0.5)"/>
</clipPath>
</defs>
</svg>
