<svg width="24" height="25" viewBox="0 0 24 25" fill="none" xmlns="http://www.w3.org/2000/svg">
<g clip-path="url(#clip0)">
<path fill-rule="evenodd" clip-rule="evenodd" d="M12 24.4991C5.38296 24.4991 0 19.1157 0 12.4998C0 5.88521 5.38296 0.501892 12 0.501892C18.617 0.501892 24 5.88521 24 12.4998C24 19.1157 18.617 24.4991 12 24.4991ZM21.5903 14.0568C21.2583 13.9533 18.5838 13.1543 15.5404 13.6412C16.8108 17.1316 17.328 19.9764 17.4272 20.566C19.6061 19.0928 21.1579 16.7594 21.5903 14.0568ZM15.7947 21.4559C15.6494 20.6039 15.0855 17.6335 13.7217 14.0908C13.7012 14.098 13.6798 14.1043 13.6577 14.1122C8.1799 16.0196 6.2132 19.8208 6.03817 20.178C7.68441 21.4615 9.7547 22.2277 12 22.2277C13.3451 22.2276 14.6282 21.9518 15.7947 21.4559ZM4.78393 19.0091C5.00358 18.6321 7.66976 14.2188 12.6789 12.5995C12.8057 12.5584 12.9334 12.5204 13.0614 12.4848C12.8179 11.932 12.5529 11.3811 12.2739 10.8359C7.42364 12.2877 2.71683 12.2276 2.29116 12.2182C2.28837 12.3169 2.28685 12.4161 2.28685 12.5149C2.28685 15.01 3.23245 17.2873 4.78393 19.0091ZM2.4919 10.526C2.92665 10.5315 6.92809 10.5482 11.4717 9.34289C9.8626 6.4815 8.12661 4.0761 7.87014 3.72603C5.15296 5.00709 3.12141 7.51208 2.4919 10.526ZM9.72387 3.07361C9.99256 3.4328 11.7565 5.83465 13.3483 8.75922C16.8028 7.46315 18.2641 5.49954 18.4384 5.25134C16.7234 3.72841 14.4677 2.80411 11.9999 2.80411C11.216 2.80411 10.4541 2.89736 9.72387 3.07361ZM19.5184 6.37324C19.3141 6.6507 17.6856 8.73712 14.0947 10.202C14.3208 10.6659 14.5373 11.1369 14.7396 11.6096C14.8104 11.778 14.8803 11.9447 14.9483 12.1107C18.1803 11.7044 21.3915 12.3553 21.7127 12.424C21.691 10.1317 20.8718 8.02659 19.5184 6.37324Z" fill="#151B27"/>
</g>
<defs>
<clipPath id="clip0">
<rect width="24" height="24" fill="white" transform="translate(0 0.5)"/>
</clipPath>
</defs>
</svg>
