<svg width="24" height="25" viewBox="0 0 24 25" fill="none" xmlns="http://www.w3.org/2000/svg">
<g clip-path="url(#clip0)">
<path d="M12 1C5.36999 1 -7.62939e-06 6.28 -7.62939e-06 12.792C-7.62939e-06 18.003 3.43799 22.422 8.20499 23.98C8.80499 24.091 9.02499 23.726 9.02499 23.413C9.02499 23.133 9.01499 22.391 9.00999 21.408C5.67199 22.119 4.96799 19.826 4.96799 19.826C4.42199 18.465 3.63299 18.101 3.63299 18.101C2.54599 17.37 3.71699 17.385 3.71699 17.385C4.92199 17.467 5.55499 18.6 5.55499 18.6C6.62499 20.403 8.36399 19.882 9.04999 19.581C9.15799 18.818 9.46699 18.299 9.80999 18.004C7.14499 17.709 4.34399 16.695 4.34399 12.177C4.34399 10.89 4.80899 9.838 5.57899 9.013C5.44399 8.715 5.03899 7.516 5.68399 5.892C5.68399 5.892 6.68899 5.576 8.98399 7.101C9.94399 6.839 10.964 6.709 11.984 6.703C13.004 6.709 14.024 6.839 14.984 7.101C17.264 5.576 18.269 5.892 18.269 5.892C18.914 7.516 18.509 8.715 18.389 9.013C19.154 9.838 19.619 10.89 19.619 12.177C19.619 16.707 16.814 17.704 14.144 17.994C14.564 18.348 14.954 19.071 14.954 20.176C14.954 21.754 14.939 23.022 14.939 23.405C14.939 23.714 15.149 24.083 15.764 23.965C20.565 22.417 24 17.995 24 12.792C24 6.28 18.627 1 12 1Z" fill="#151B27"/>
</g>
<defs>
<clipPath id="clip0">
<rect width="24" height="24" fill="white" transform="translate(0 0.5)"/>
</clipPath>
</defs>
</svg>
