<svg width="25" height="24" viewBox="0 0 25 24" fill="none" xmlns="http://www.w3.org/2000/svg">
<path d="M1.89017 12.1098C1.83773 12.0574 1.77091 12.0217 1.69816 12.0072C1.62542 11.9927 1.55002 12.0002 1.48149 12.0285C1.41297 12.0569 1.3544 12.105 1.31319 12.1667C1.27199 12.2283 1.25 12.3008 1.25 12.375V22.875C1.25 22.9745 1.28951 23.0698 1.35983 23.1402C1.43016 23.2105 1.52554 23.25 1.625 23.25H12.125C12.1992 23.25 12.2717 23.228 12.3333 23.1868C12.395 23.1456 12.4431 23.087 12.4715 23.0185C12.4998 22.95 12.5073 22.8746 12.4928 22.8018C12.4783 22.7291 12.4426 22.6623 12.3902 22.6098L1.89017 12.1098ZM2 22.5V13.2803L11.2197 22.5H2Z" fill="white"/>
<path d="M3.875 21H6.87499C6.94916 21 7.02167 20.978 7.08334 20.9368C7.14501 20.8956 7.19308 20.837 7.22146 20.7685C7.24984 20.7 7.25727 20.6246 7.2428 20.5518C7.22833 20.4791 7.19261 20.4123 7.14016 20.3598L4.14017 17.3598C4.08773 17.3074 4.02091 17.2717 3.94816 17.2572C3.87542 17.2427 3.80002 17.2502 3.73149 17.2785C3.66297 17.3069 3.6044 17.355 3.56319 17.4167C3.52199 17.4783 3.5 17.5508 3.5 17.625V20.625C3.5 20.7245 3.53951 20.8198 3.60983 20.8902C3.68016 20.9605 3.77554 21 3.875 21ZM4.25 18.5304L5.9697 20.25H4.25V18.5304Z" fill="white"/>
<path d="M5.375 2.25H6.125V3H5.375V2.25Z" fill="white"/>
<path d="M6.875 2.25H7.625V3H6.875V2.25Z" fill="white"/>
<path d="M8.375 2.25H9.125V3H8.375V2.25Z" fill="white"/>
<path d="M8.97294 7.53281C8.90626 7.56163 8.84956 7.60945 8.80991 7.67031C8.77026 7.73117 8.74942 7.80236 8.75 7.875V12C8.75 12.0725 8.77103 12.1435 8.81056 12.2044C8.85009 12.2652 8.90641 12.3132 8.9727 12.3427L12.3477 13.8427C12.3957 13.8641 12.4476 13.8751 12.5001 13.875C12.5526 13.875 12.6045 13.8639 12.6524 13.8424V13.8427L16.0274 12.3427C16.0937 12.3132 16.15 12.2652 16.1895 12.2043C16.229 12.1435 16.25 12.0725 16.25 12V7.875C16.2506 7.80236 16.2298 7.73117 16.1901 7.67031C16.1505 7.60945 16.0938 7.56163 16.0271 7.53281V7.53229L12.6521 6.03229C12.6041 6.011 12.5522 6 12.4997 6C12.4472 6 12.3953 6.011 12.3474 6.03229L8.97238 7.53229L8.97294 7.53281ZM12.125 12.923L9.5 11.7562V8.45203L12.125 9.61875V12.923ZM15.5 11.7562L12.875 12.923V9.61875L15.5 8.45208V11.7562ZM12.5 6.78534L14.9516 7.875L12.5 8.96461L10.0484 7.875L12.5 6.78534Z" fill="white"/>
<path d="M12.125 15H12.875V16.875H12.125V15Z" fill="white"/>
<path d="M12.125 3.375H12.875V5.25H12.125V3.375Z" fill="white"/>
<path d="M5.96128 7.0907L6.28453 6.4142L7.85422 7.16424L7.53097 7.84074L5.96128 7.0907Z" fill="white"/>
<path d="M17.1372 7.15881L18.7069 6.40877L19.0301 7.08527L17.4604 7.83531L17.1372 7.15881Z" fill="white"/>
<path d="M5.96115 13.1575L7.53084 12.4074L7.85409 13.0839L6.2844 13.834L5.96115 13.1575Z" fill="white"/>
<path d="M23.375 18H21.125V12.1553L23.3295 9.95081C23.4628 9.8175 23.5686 9.65923 23.6407 9.48505C23.7129 9.31087 23.75 9.12418 23.75 8.93565C23.75 8.74712 23.7129 8.56043 23.6407 8.38625C23.5686 8.21207 23.4628 8.0538 23.3295 7.92049C23.1962 7.78718 23.0379 7.68143 22.8637 7.60929C22.6896 7.53714 22.5029 7.50001 22.3143 7.50001C22.1258 7.50001 21.9391 7.53715 21.7649 7.6093C21.5908 7.68145 21.4325 7.7872 21.2992 7.92052L21.125 8.0947V4.875C21.125 4.82575 21.1153 4.77699 21.0965 4.73149C21.0776 4.68599 21.05 4.64465 21.0152 4.60983L17.2652 0.859828C17.2303 0.825007 17.189 0.797385 17.1435 0.778541C17.098 0.759696 17.0492 0.749998 17 0.75H5.375C4.97731 0.750447 4.59604 0.908625 4.31483 1.18983C4.03363 1.47104 3.87545 1.85231 3.875 2.25V13.125H4.625V2.25C4.62524 2.05116 4.70433 1.86053 4.84493 1.71993C4.98553 1.57933 5.17616 1.50024 5.375 1.5H16.625V3.75C16.6254 4.14769 16.7836 4.52896 17.0648 4.81017C17.346 5.09137 17.7273 5.24955 18.125 5.25H20.375V8.84466L14.4848 14.7348C14.4325 14.7872 14.3968 14.8539 14.3823 14.9265L14.0073 16.8015C13.9952 16.862 13.9982 16.9246 14.0161 16.9837C14.034 17.0428 14.0662 17.0965 14.1098 17.1402C14.1535 17.1838 14.2072 17.216 14.2663 17.2339C14.3254 17.2518 14.388 17.2548 14.4485 17.2427L16.3235 16.8677C16.3961 16.8532 16.4628 16.8175 16.5152 16.7652L20.375 12.9053V18H12.875C12.7755 18 12.6802 18.0395 12.6098 18.1098C12.5395 18.1802 12.5 18.2755 12.5 18.375V19.5H10.625V20.25H12.5V21.375C12.5 21.4745 12.5395 21.5698 12.6098 21.6402C12.6802 21.7105 12.7755 21.75 12.875 21.75H23.375C23.4745 21.75 23.5698 21.7105 23.6402 21.6402C23.7105 21.5698 23.75 21.4745 23.75 21.375V18.375C23.75 18.2755 23.7105 18.1802 23.6402 18.1098C23.5698 18.0395 23.4745 18 23.375 18ZM17.375 3.75V2.03034L19.8447 4.5H18.125C17.9262 4.49976 17.7355 4.42067 17.5949 4.28007C17.4543 4.13947 17.3752 3.94884 17.375 3.75ZM15.2803 15L21.125 9.15534L22.0947 10.125L16.25 15.9697L15.2803 15ZM22.3144 8.25C22.45 8.25001 22.5825 8.29023 22.6953 8.36558C22.808 8.44092 22.8959 8.54801 22.9478 8.67329C22.9997 8.79858 23.0133 8.93644 22.9868 9.06944C22.9604 9.20245 22.8951 9.32462 22.7992 9.42052L22.625 9.59466L21.6553 8.625L21.8295 8.45081C21.893 8.38694 21.9686 8.3363 22.0518 8.30183C22.135 8.26736 22.2243 8.24975 22.3144 8.25ZM14.9803 15.7606L15.4894 16.2697L14.8531 16.3969L14.9803 15.7606ZM23 21H13.25V18.75H14V19.5H14.75V18.75H15.5V19.5H16.25V18.75H17V19.5H17.75V18.75H18.5V19.5H19.25V18.75H20V19.5H20.75V18.75H21.5V19.5H22.25V18.75H23V21Z" fill="white"/>
</svg>
