<svg width="173" height="49" viewBox="0 0 173 49" fill="none" xmlns="http://www.w3.org/2000/svg">
<path d="M12.5742 31.4102L1.125 26.3711V24.9531L12.5742 19.2344V21.5195L3.98438 25.5508L12.5742 29.1016V31.4102ZM158.18 16.8672L151.805 34H149.203L155.59 16.8672H158.18ZM159.516 29.1016L168.105 25.5508L159.516 21.5195V19.2344L170.965 24.9531V26.3711L159.516 31.4102V29.1016Z" fill="#F4BBD7"/>
<path d="M29.9062 34L23.5195 18.1797H23.4258C23.4883 19.1484 23.5195 20.1406 23.5195 21.1562V34H22.3711V16.8672H24.2227L30.293 31.9375H30.3633L36.4336 16.8672H38.2383V34H37.0312V21.0156C37.0312 20.1094 37.0781 19.1719 37.1719 18.2031H37.0781L30.668 34H29.9062ZM50.5312 34L50.2383 31.9844H50.1445C49.5039 32.8047 48.8438 33.3867 48.1641 33.7305C47.4922 34.0664 46.6953 34.2344 45.7734 34.2344C44.5234 34.2344 43.5508 33.9141 42.8555 33.2734C42.1602 32.6328 41.8125 31.7461 41.8125 30.6133C41.8125 29.3711 42.3281 28.4062 43.3594 27.7188C44.3984 27.0312 45.8984 26.668 47.8594 26.6289L50.2852 26.5586V25.7148C50.2852 24.5039 50.0391 23.5898 49.5469 22.9727C49.0547 22.3555 48.2617 22.0469 47.168 22.0469C45.9883 22.0469 44.7656 22.375 43.5 23.0312L43.0664 22.0234C44.4648 21.3672 45.8477 21.0391 47.2148 21.0391C48.6133 21.0391 49.6562 21.4023 50.3438 22.1289C51.0391 22.8555 51.3867 23.9883 51.3867 25.5273V34H50.5312ZM45.8438 33.1797C47.2031 33.1797 48.2734 32.793 49.0547 32.0195C49.8438 31.2383 50.2383 30.1562 50.2383 28.7734V27.5195L48.0117 27.6133C46.2227 27.6992 44.9453 27.9805 44.1797 28.457C43.4219 28.9258 43.043 29.6602 43.043 30.6602C43.043 31.457 43.2852 32.0781 43.7695 32.5234C44.2617 32.9609 44.9531 33.1797 45.8438 33.1797ZM64.4062 34V25.7383C64.4062 24.457 64.1367 23.5273 63.5977 22.9492C63.0586 22.3633 62.2227 22.0703 61.0898 22.0703C59.5664 22.0703 58.4492 22.457 57.7383 23.2305C57.0352 23.9961 56.6836 25.2422 56.6836 26.9688V34H55.5234V15.7656H56.6836V21.5664L56.625 23.1953H56.707C57.1836 22.4297 57.7852 21.875 58.5117 21.5312C59.2383 21.1875 60.1406 21.0156 61.2188 21.0156C64.1094 21.0156 65.5547 22.5664 65.5547 25.668V34H64.4062ZM77.4141 34L77.1211 31.9844H77.0273C76.3867 32.8047 75.7266 33.3867 75.0469 33.7305C74.375 34.0664 73.5781 34.2344 72.6562 34.2344C71.4062 34.2344 70.4336 33.9141 69.7383 33.2734C69.043 32.6328 68.6953 31.7461 68.6953 30.6133C68.6953 29.3711 69.2109 28.4062 70.2422 27.7188C71.2812 27.0312 72.7812 26.668 74.7422 26.6289L77.168 26.5586V25.7148C77.168 24.5039 76.9219 23.5898 76.4297 22.9727C75.9375 22.3555 75.1445 22.0469 74.0508 22.0469C72.8711 22.0469 71.6484 22.375 70.3828 23.0312L69.9492 22.0234C71.3477 21.3672 72.7305 21.0391 74.0977 21.0391C75.4961 21.0391 76.5391 21.4023 77.2266 22.1289C77.9219 22.8555 78.2695 23.9883 78.2695 25.5273V34H77.4141ZM72.7266 33.1797C74.0859 33.1797 75.1562 32.793 75.9375 32.0195C76.7266 31.2383 77.1211 30.1562 77.1211 28.7734V27.5195L74.8945 27.6133C73.1055 27.6992 71.8281 27.9805 71.0625 28.457C70.3047 28.9258 69.9258 29.6602 69.9258 30.6602C69.9258 31.457 70.168 32.0781 70.6523 32.5234C71.1445 32.9609 71.8359 33.1797 72.7266 33.1797ZM83.5664 34H82.4062V15.7656H83.5664V34ZM89.0039 34H87.8438V21.2617H89.0039V34ZM87.6797 17.7227C87.6797 16.9727 87.9258 16.5977 88.418 16.5977C88.6602 16.5977 88.8477 16.6953 88.9805 16.8906C89.1211 17.0859 89.1914 17.3633 89.1914 17.7227C89.1914 18.0742 89.1211 18.3516 88.9805 18.5547C88.8477 18.7578 88.6602 18.8594 88.418 18.8594C87.9258 18.8594 87.6797 18.4805 87.6797 17.7227ZM102.164 34V25.7383C102.164 24.457 101.895 23.5273 101.355 22.9492C100.816 22.3633 99.9805 22.0703 98.8477 22.0703C97.3242 22.0703 96.207 22.457 95.4961 23.2305C94.793 23.9961 94.4414 25.2422 94.4414 26.9688V34H93.2812V21.2617H94.2656L94.4883 23.0078H94.5586C95.3867 21.6797 96.8594 21.0156 98.9766 21.0156C101.867 21.0156 103.312 22.5664 103.312 25.668V34H102.164ZM117.973 27.6133C117.973 29.6914 117.469 31.3164 116.461 32.4883C115.453 33.6523 114.062 34.2344 112.289 34.2344C111.172 34.2344 110.188 33.9648 109.336 33.4258C108.484 32.8867 107.832 32.1133 107.379 31.1055C106.926 30.0977 106.699 28.9336 106.699 27.6133C106.699 25.5352 107.203 23.918 108.211 22.7617C109.219 21.5977 110.602 21.0156 112.359 21.0156C114.109 21.0156 115.48 21.6055 116.473 22.7852C117.473 23.957 117.973 25.5664 117.973 27.6133ZM107.918 27.6133C107.918 29.3633 108.301 30.7305 109.066 31.7148C109.84 32.6914 110.93 33.1797 112.336 33.1797C113.742 33.1797 114.828 32.6914 115.594 31.7148C116.367 30.7305 116.754 29.3633 116.754 27.6133C116.754 25.8555 116.363 24.4922 115.582 23.5234C114.809 22.5547 113.719 22.0703 112.312 22.0703C110.906 22.0703 109.82 22.5547 109.055 23.5234C108.297 24.4844 107.918 25.8477 107.918 27.6133ZM126.516 21.0156C127.055 21.0156 127.633 21.0703 128.25 21.1797L128.027 22.293C127.496 22.1602 126.945 22.0938 126.375 22.0938C125.289 22.0938 124.398 22.5547 123.703 23.4766C123.008 24.3984 122.66 25.5625 122.66 26.9688V34H121.5V21.2617H122.484L122.602 23.5586H122.684C123.207 22.6211 123.766 21.9648 124.359 21.5898C124.953 21.207 125.672 21.0156 126.516 21.0156ZM141.387 27.6133C141.387 29.6914 140.883 31.3164 139.875 32.4883C138.867 33.6523 137.477 34.2344 135.703 34.2344C134.586 34.2344 133.602 33.9648 132.75 33.4258C131.898 32.8867 131.246 32.1133 130.793 31.1055C130.34 30.0977 130.113 28.9336 130.113 27.6133C130.113 25.5352 130.617 23.918 131.625 22.7617C132.633 21.5977 134.016 21.0156 135.773 21.0156C137.523 21.0156 138.895 21.6055 139.887 22.7852C140.887 23.957 141.387 25.5664 141.387 27.6133ZM131.332 27.6133C131.332 29.3633 131.715 30.7305 132.48 31.7148C133.254 32.6914 134.344 33.1797 135.75 33.1797C137.156 33.1797 138.242 32.6914 139.008 31.7148C139.781 30.7305 140.168 29.3633 140.168 27.6133C140.168 25.8555 139.777 24.4922 138.996 23.5234C138.223 22.5547 137.133 22.0703 135.727 22.0703C134.32 22.0703 133.234 22.5547 132.469 23.5234C131.711 24.4844 131.332 25.8477 131.332 27.6133Z" fill="#151B27"/>
</svg>
